<?xml version="1.0" encoding="utf-8"?>
<!-- Generator: Adobe Illustrator 16.0.0, SVG Export Plug-In . SVG Version: 6.00 Build 0)  -->
<!DOCTYPE svg PUBLIC "-//W3C//DTD SVG 1.1//EN" "http://www.w3.org/Graphics/SVG/1.1/DTD/svg11.dtd">
<svg version="1.1" id="Layer_1" xmlns="http://www.w3.org/2000/svg" xmlns:xlink="http://www.w3.org/1999/xlink" x="0px" y="0px"
	 viewBox="0 0 54.25 72.75" enable-background="new 0 0 54.25 72.75" xml:space="preserve">
<g>
	<g>
		<path fill="#773010" d="M29.666,15.583c0,0-2.166,8.5-2.082,14.5c0.082,6,0.082,10.5,0.5,10.833C28.5,41.25,39.918,36.667,40.5,37
			c0.584,0.333,0.584,1.5,0,1.75s-11.666,2.918-11.916,4.334S29,59.334,29,59.334s-3.834,0.334-4.334,0S23.834,39.833,23.75,39
			s-10.584-2.083-12.25-2c-0.084-1.25,0-2.416,0-2.416s11.75,0.999,12.25,1.916c0.084-3.083,0.25-6.333,0.084-8.75
			c-0.168-2.417,0.582-3.166-5.168-10.833c1-0.667,1.584-1.833,1.584-1.333s4.859,8.583,5.18,7.75s1.902-6.992,2.236-7.871
			C28.416,15.417,29.666,15.583,29.666,15.583z"/>
		<path fill="#773010" d="M23.916,14.167c0,0,2.418,1.333,0.418,3.75C23.166,16.5,23.082,15.917,23.916,14.167z"/>
		<path fill="#773010" d="M33.834,16.917c0,0-3.084-0.25-2.668,3.417C32.916,20.083,33.5,19.167,33.834,16.917z"/>
		<path fill="#773010" d="M38.5,17.583c0,0-2.832-0.625-2.5,2.542C38,19.875,38.334,19.083,38.5,17.583z"/>
		<path fill="#773010" d="M40.5,23.25c0,0-3.584,0.417-2.959,4.083C39.041,27.792,40.959,25.958,40.5,23.25z"/>
		<path fill="#773010" d="M35.5,22.333c0,0,0.416,4.875-4.666,5.833c-0.584-0.125-0.584-0.151-0.5-0.763
			C30.416,26.792,30.75,23.042,35.5,22.333z"/>
		<path fill="#773010" d="M40.75,29.417c0,0,1.25,5.167-4.041,5.833C36.291,33.209,37.293,30.25,40.75,29.417z"/>
		<path fill="#773010" d="M34.375,29.667c0,0,0.75,5.958-4.541,6.625C29.459,33.833,29.293,31.083,34.375,29.667z"/>
		<path fill="#773010" d="M16.291,28.167c0,0,5.084-0.667,4.875,4.812C17.625,32.875,16.457,31.667,16.291,28.167z"/>
		<path fill="#773010" d="M10.334,29.667c0,0,2.75-1.792,3.916,2.125C12.834,33.333,10.25,31,10.334,29.667z"/>
		<path fill="#773010" d="M9.75,25c0,0,2.33-0.901,2.541,2.404C10.459,28.25,9.584,25.375,9.75,25z"/>
		<path fill="#773010" d="M13.957,17.708c0,0,2.334,0.292,1.5,2.625C14.75,20.583,13.207,20.542,13.957,17.708z"/>
		<path fill="#773010" d="M17.832,21.167c0,0,3.539,0.962,2.959,4.667C20.707,26.25,16.791,26.25,17.832,21.167z"/>
		<path fill="#773010" d="M12.457,21.875c0,0,3.834-0.667,3.5,3.375C15.125,25.833,12.25,25.542,12.457,21.875z"/>
		<path fill="#773010" d="M14.875,39.25c0,0,0,3.416-3.75,3.625C10.666,39.25,14.125,39.083,14.875,39.25z"/>
		<path fill="#773010" d="M17.084,41.042c0,0,1.582-0.208,1.875,0c0.291,0.208,0.416,0.626,0.332,2.542
			C19.209,45.5,19.25,57.959,19,58.334s-2.709,0.125-3.084-1.25S16.916,41.584,17.084,41.042z"/>
		<path fill="#773010" d="M31.666,45.334c-0.055,0.14,1.959,4.917,2.459,7s1.5,6.314,2,6.157S39.75,58,39.75,57.292
			s-0.793-12.917-0.584-14.417c0-0.666-1.416-0.333-2.207,0.292c-0.25,2.25-0.252,5.958-0.668,6.125S34.334,44.916,34,44.75
			S31.832,44.918,31.666,45.334z"/>
	</g>
	<g>
		<path fill="none" stroke="#59220D" stroke-linecap="round" d="M29.666,15.583c0,0-2.166,8.5-2.082,14.5
			c0.082,6,0.082,10.5,0.5,10.833C28.5,41.25,39.918,36.667,40.5,37c0.584,0.333,0.584,1.5,0,1.75s-11.666,2.918-11.916,4.334
			S29,59.334,29,59.334s-3.834,0.334-4.334,0S23.834,39.833,23.75,39s-10.584-2.083-12.25-2c-0.084-1.25,0-2.416,0-2.416
			s11.75,0.999,12.25,1.916c0.084-3.083,0.25-6.333,0.084-8.75c-0.168-2.417,0.582-3.166-5.168-10.833
			c1-0.667,1.584-1.833,1.584-1.333s4.859,8.583,5.18,7.75s1.902-6.992,2.236-7.871C28.416,15.417,29.666,15.583,29.666,15.583z"/>
		<path fill="none" stroke="#59220D" stroke-linecap="round" d="M23.916,14.167c0,0,2.418,1.333,0.418,3.75
			C23.166,16.5,23.082,15.917,23.916,14.167z"/>
		<path fill="none" stroke="#59220D" stroke-linecap="round" d="M33.834,16.917c0,0-3.084-0.25-2.668,3.417
			C32.916,20.083,33.5,19.167,33.834,16.917z"/>
		<path fill="none" stroke="#59220D" stroke-linecap="round" d="M38.5,17.583c0,0-2.832-0.625-2.5,2.542
			C38,19.875,38.334,19.083,38.5,17.583z"/>
		<path fill="none" stroke="#59220D" stroke-linecap="round" d="M40.5,23.25c0,0-3.584,0.417-2.959,4.083
			C39.041,27.792,40.959,25.958,40.5,23.25z"/>
		<path fill="none" stroke="#59220D" stroke-linecap="round" d="M35.5,22.333c0,0,0.416,4.875-4.666,5.833
			c-0.584-0.125-0.584-0.151-0.5-0.763C30.416,26.792,30.75,23.042,35.5,22.333z"/>
		<path fill="none" stroke="#59220D" stroke-linecap="round" d="M40.75,29.417c0,0,1.25,5.167-4.041,5.833
			C36.291,33.209,37.293,30.25,40.75,29.417z"/>
		<path fill="none" stroke="#59220D" stroke-linecap="round" d="M34.375,29.667c0,0,0.75,5.958-4.541,6.625
			C29.459,33.833,29.293,31.083,34.375,29.667z"/>
		<path fill="none" stroke="#59220D" stroke-linecap="round" d="M16.291,28.167c0,0,5.084-0.667,4.875,4.812
			C17.625,32.875,16.457,31.667,16.291,28.167z"/>
		<path fill="none" stroke="#59220D" stroke-linecap="round" d="M10.334,29.667c0,0,2.75-1.792,3.916,2.125
			C12.834,33.333,10.25,31,10.334,29.667z"/>
		<path fill="none" stroke="#59220D" stroke-linecap="round" d="M9.75,25c0,0,2.33-0.901,2.541,2.404
			C10.459,28.25,9.584,25.375,9.75,25z"/>
		<path fill="none" stroke="#59220D" stroke-linecap="round" d="M13.957,17.708c0,0,2.334,0.292,1.5,2.625
			C14.75,20.583,13.207,20.542,13.957,17.708z"/>
		<path fill="none" stroke="#59220D" stroke-linecap="round" d="M17.832,21.167c0,0,3.539,0.962,2.959,4.667
			C20.707,26.25,16.791,26.25,17.832,21.167z"/>
		<path fill="none" stroke="#59220D" stroke-linecap="round" d="M12.457,21.875c0,0,3.834-0.667,3.5,3.375
			C15.125,25.833,12.25,25.542,12.457,21.875z"/>
		<path fill="none" stroke="#59220D" stroke-linecap="round" d="M14.875,39.25c0,0,0,3.416-3.75,3.625
			C10.666,39.25,14.125,39.083,14.875,39.25z"/>
		<path fill="none" stroke="#59220D" stroke-linecap="round" d="M17.084,41.042c0,0,1.582-0.208,1.875,0
			c0.291,0.208,0.416,0.626,0.332,2.542C19.209,45.5,19.25,57.959,19,58.334s-2.709,0.125-3.084-1.25S16.916,41.584,17.084,41.042z"
			/>
		<path fill="none" stroke="#59220D" stroke-linecap="round" d="M31.666,45.334c-0.055,0.14,1.959,4.917,2.459,7s1.5,6.314,2,6.157
			S39.75,58,39.75,57.292s-0.793-12.917-0.584-14.417c0-0.666-1.416-0.333-2.207,0.292c-0.25,2.25-0.252,5.958-0.668,6.125
			S34.334,44.916,34,44.75S31.832,44.918,31.666,45.334z"/>
	</g>
	<g>
		<path fill="#59220D" d="M29.666,15.583c0,0-2.166,8.5-2.082,14.5c0.082,6,0.082,10.5,0.5,10.833C28.5,41.25,39.918,36.667,40.5,37
			c0.584,0.333,0.584,1.5,0,1.75s-11.666,2.918-11.916,4.334S29,59.334,29,59.334s-3.834,0.334-4.334,0S23.834,39.833,23.75,39
			s-10.584-2.083-12.25-2c-0.084-1.25,0-2.416,0-2.416s11.75,0.999,12.25,1.916c0.084-3.083,0.25-6.333,0.084-8.75
			c-0.168-2.417,0.582-3.166-5.168-10.833c1-0.667,1.584-1.833,1.584-1.333s4.859,8.583,5.18,7.75s1.902-6.992,2.236-7.871
			C28.416,15.417,29.666,15.583,29.666,15.583z"/>
		<path fill="#59220D" d="M23.916,14.167c0,0,2.418,1.333,0.418,3.75C23.166,16.5,23.082,15.917,23.916,14.167z"/>
		<path fill="#59220D" d="M33.834,16.917c0,0-3.084-0.25-2.668,3.417C32.916,20.083,33.5,19.167,33.834,16.917z"/>
		<path fill="#59220D" d="M38.5,17.583c0,0-2.832-0.625-2.5,2.542C38,19.875,38.334,19.083,38.5,17.583z"/>
		<path fill="#59220D" d="M40.5,23.25c0,0-3.584,0.417-2.959,4.083C39.041,27.792,40.959,25.958,40.5,23.25z"/>
		<path fill="#59220D" d="M35.5,22.333c0,0,0.416,4.875-4.666,5.833c-0.584-0.125-0.584-0.151-0.5-0.763
			C30.416,26.792,30.75,23.042,35.5,22.333z"/>
		<path fill="#59220D" d="M40.75,29.417c0,0,1.25,5.167-4.041,5.833C36.291,33.209,37.293,30.25,40.75,29.417z"/>
		<path fill="#59220D" d="M34.375,29.667c0,0,0.75,5.958-4.541,6.625C29.459,33.833,29.293,31.083,34.375,29.667z"/>
		<path fill="#59220D" d="M16.291,28.167c0,0,5.084-0.667,4.875,4.812C17.625,32.875,16.457,31.667,16.291,28.167z"/>
		<path fill="#59220D" d="M10.334,29.667c0,0,2.75-1.792,3.916,2.125C12.834,33.333,10.25,31,10.334,29.667z"/>
		<path fill="#59220D" d="M9.75,25c0,0,2.33-0.901,2.541,2.404C10.459,28.25,9.584,25.375,9.75,25z"/>
		<path fill="#59220D" d="M13.957,17.708c0,0,2.334,0.292,1.5,2.625C14.75,20.583,13.207,20.542,13.957,17.708z"/>
		<path fill="#59220D" d="M17.832,21.167c0,0,3.539,0.962,2.959,4.667C20.707,26.25,16.791,26.25,17.832,21.167z"/>
		<path fill="#59220D" d="M12.457,21.875c0,0,3.834-0.667,3.5,3.375C15.125,25.833,12.25,25.542,12.457,21.875z"/>
		<path fill="#59220D" d="M14.875,39.25c0,0,0,3.416-3.75,3.625C10.666,39.25,14.125,39.083,14.875,39.25z"/>
		<path fill="#59220D" d="M17.084,41.042c0,0,1.582-0.208,1.875,0c0.291,0.208,0.416,0.626,0.332,2.542
			C19.209,45.5,19.25,57.959,19,58.334s-2.709,0.125-3.084-1.25S16.916,41.584,17.084,41.042z"/>
		<path fill="#59220D" d="M31.666,45.334c-0.055,0.14,1.959,4.917,2.459,7s1.5,6.314,2,6.157S39.75,58,39.75,57.292
			s-0.793-12.917-0.584-14.417c0-0.666-1.416-0.333-2.207,0.292c-0.25,2.25-0.252,5.958-0.668,6.125S34.334,44.916,34,44.75
			S31.832,44.918,31.666,45.334z"/>
	</g>
</g>
<path opacity="0.5" fill="#9EFF8A" stroke="#59220D" stroke-linecap="round" d="M49.86,47.231C49.86,62.25,43.39,68,26.208,68
	S3.922,57.495,3.922,47.231c0-25.844,0-42.481,22.286-42.481C46.5,4.75,49.86,17.452,49.86,47.231z"/>
<g>
	<path fill="#883911" d="M29.666,14.583c0,0-2.166,8.5-2.082,14.5c0.082,6,0.082,10.5,0.5,10.833C28.5,40.25,39.918,35.667,40.5,36
		c0.584,0.333,0.584,1.5,0,1.75s-11.666,2.918-11.916,4.334S29,58.334,29,58.334s-3.834,0.334-4.334,0S23.834,38.833,23.75,38
		s-10.584-2.083-12.25-2c-0.084-1.25,0-2.417,0-2.417s11.75,1.001,12.25,1.917c0.084-3.083,0.25-6.333,0.084-8.75
		c-0.168-2.417,0.582-3.166-5.168-10.833c1-0.667,1.584-1.833,1.584-1.333s4.859,8.583,5.18,7.75s1.902-6.992,2.236-7.871
		C28.416,14.417,29.666,14.583,29.666,14.583z"/>
	<path fill="#883911" d="M23.916,13.167c0,0,2.418,1.333,0.418,3.75C23.166,15.5,23.082,14.917,23.916,13.167z"/>
	<path fill="#883911" d="M33.834,15.917c0,0-3.084-0.25-2.668,3.417C32.916,19.083,33.5,18.167,33.834,15.917z"/>
	<path fill="#883911" d="M38.5,16.583c0,0-2.832-0.625-2.5,2.542C38,18.875,38.334,18.083,38.5,16.583z"/>
	<path fill="#883911" d="M40.5,22.25c0,0-3.584,0.417-2.959,4.083C39.041,26.792,40.959,24.958,40.5,22.25z"/>
	<path fill="#883911" d="M35.5,21.333c0,0,0.416,4.875-4.666,5.833c-0.584-0.125-0.584-0.151-0.5-0.763
		C30.416,25.792,30.75,22.042,35.5,21.333z"/>
	<path fill="#883911" d="M40.75,28.417c0,0,1.25,5.167-4.041,5.833C36.291,32.208,37.293,29.25,40.75,28.417z"/>
	<path fill="#883911" d="M34.375,28.667c0,0,0.75,5.958-4.541,6.625C29.459,32.834,29.293,30.083,34.375,28.667z"/>
	<path fill="#883911" d="M16.291,27.167c0,0,5.084-0.667,4.875,4.812C17.625,31.875,16.457,30.668,16.291,27.167z"/>
	<path fill="#883911" d="M10.334,28.667c0,0,2.75-1.792,3.916,2.125C12.834,32.333,10.25,30,10.334,28.667z"/>
	<path fill="#883911" d="M9.75,24c0,0,2.33-0.901,2.541,2.404C10.459,27.25,9.584,24.375,9.75,24z"/>
	<path fill="#883911" d="M13.957,16.708c0,0,2.334,0.292,1.5,2.625C14.75,19.583,13.207,19.542,13.957,16.708z"/>
	<path fill="#883911" d="M17.832,20.167c0,0,3.539,0.962,2.959,4.667C20.707,25.25,16.791,25.25,17.832,20.167z"/>
	<path fill="#883911" d="M12.457,20.875c0,0,3.834-0.667,3.5,3.375C15.125,24.833,12.25,24.542,12.457,20.875z"/>
	<path fill="#883911" d="M14.875,38.25c0,0,0,3.416-3.75,3.625C10.666,38.25,14.125,38.083,14.875,38.25z"/>
	<path fill="#883911" d="M17.084,40.042c0,0,1.582-0.208,1.875,0c0.291,0.208,0.416,0.626,0.332,2.542
		C19.209,44.5,19.25,56.959,19,57.334s-2.709,0.125-3.084-1.25S16.916,40.584,17.084,40.042z"/>
	<path fill="#883911" d="M31.666,44.334c-0.055,0.14,1.959,4.917,2.459,7s1.5,6.314,2,6.157S39.75,57,39.75,56.292
		s-0.793-12.917-0.584-14.417c0-0.666-1.416-0.333-2.207,0.292c-0.25,2.25-0.252,5.958-0.668,6.125S34.334,43.916,34,43.75
		S31.832,43.918,31.666,44.334z"/>
</g>
</svg>
